<svg width="24" height="24" viewBox="0 0 24 24" fill="none" xmlns="http://www.w3.org/2000/svg">
<path d="M21.9698 18.3305C21.9698 18.6905 21.8898 19.0605 21.7198 19.4205C21.5498 19.7805 21.3298 20.1205 21.0398 20.4405C20.5498 20.9805 20.0098 21.3705 19.3998 21.6205C18.7998 21.8705 18.1498 22.0005 17.4498 22.0005C16.4298 22.0005 15.3398 21.7605 14.1898 21.2705C13.0398 20.7805 11.8898 20.1205 10.7498 19.2905C9.59975 18.4505 8.50975 17.5205 7.46976 16.4905C6.43975 15.4505 5.50976 14.3605 4.67976 13.2205C3.85976 12.0805 3.19976 10.9405 2.71976 9.81049C2.23976 8.67049 1.99976 7.58049 1.99976 6.54049C1.99976 5.86049 2.11976 5.21049 2.35976 4.61049C2.59976 4.00049 2.97976 3.44049 3.50976 2.94049C4.14976 2.31049 4.84976 2.00049 5.58976 2.00049C5.86976 2.00049 6.14976 2.06049 6.39976 2.18049C6.65976 2.30049 6.88976 2.48049 7.06976 2.74049L9.38976 6.01049C9.56976 6.26049 9.69975 6.49049 9.78975 6.71049C9.87976 6.92049 9.92976 7.13049 9.92976 7.32049C9.92976 7.56049 9.85976 7.80049 9.71976 8.03049C9.58976 8.26049 9.39976 8.50049 9.15975 8.74049L8.39975 9.53049C8.28975 9.64049 8.23975 9.77049 8.23975 9.93049C8.23975 10.0105 8.24976 10.0805 8.26976 10.1605C8.29976 10.2405 8.32976 10.3005 8.34976 10.3605C8.52976 10.6905 8.83975 11.1205 9.27975 11.6405C9.72975 12.1605 10.2098 12.6905 10.7298 13.2205C11.2698 13.7505 11.7898 14.2405 12.3198 14.6905C12.8398 15.1305 13.2698 15.4305 13.6098 15.6105C13.6598 15.6305 13.7198 15.6605 13.7898 15.6905C13.8698 15.7205 13.9498 15.7305 14.0398 15.7305C14.2098 15.7305 14.3398 15.6705 14.4498 15.5605L15.2098 14.8105C15.4598 14.5605 15.6998 14.3705 15.9298 14.2505C16.1598 14.1105 16.3898 14.0405 16.6398 14.0405C16.8298 14.0405 17.0298 14.0805 17.2498 14.1705C17.4698 14.2605 17.6998 14.3905 17.9498 14.5605L21.2598 16.9105C21.5198 17.0905 21.6998 17.3005 21.8098 17.5505C21.9098 17.8005 21.9698 18.0505 21.9698 18.3305Z" fill="#3B374F"/>
</svg>
