<svg width="1440" height="38" viewBox="0 0 1440 38" fill="none" xmlns="http://www.w3.org/2000/svg">
<path d="M-110 0.713501L-52.8156 37.3418L4.38921 0.713501L61.594 37.3418L118.799 0.713501L175.983 37.3418L233.188 0.713501L290.393 37.3418L347.598 0.713501L404.802 37.3418L462.007 0.713501L519.192 37.3418L576.396 0.713501L633.601 37.3418L690.826 0.713501L748.031 37.3418L805.236 0.713501L862.441 37.3418L919.645 0.713501L976.85 37.3418L1034.08 0.713501L1091.28 37.3418L1148.48 0.713501L1205.69 37.3418L1262.89 0.713501L1320.12 37.3418L1377.32 0.713501L1434.55 37.3418L1491.77 0.713501L1549 37.3418" stroke="#A0A3BD" stroke-opacity="0.1" stroke-miterlimit="10" stroke-linecap="round"/>
</svg>
