<svg width="266" height="59" viewBox="0 0 266 59" fill="none" xmlns="http://www.w3.org/2000/svg">
<path d="M4.72856 4.26014C4.43123 6.5085 4.11557 10.8178 5.06935 15.692C6.83296 24.7042 11.9531 31.5137 20.2948 35.946C37.3263 26.8762 36.5647 9.64573 35.8611 4.26014H4.72856ZM20.2954 40.7181L19.3489 40.2485C6.63247 33.9437 2.27343 23.7661 0.855841 16.339C-0.665399 8.36843 0.789358 1.92017 0.851653 1.64954L1.2338 4.19617e-05H39.3569L39.7391 1.64954C39.8014 1.92017 41.2561 8.36843 39.7349 16.339C38.3178 23.7661 33.9588 33.9437 21.2418 40.2485L20.2954 40.7181Z" fill="#F26722"/>
<path d="M40.5792 15.0485V24.6482L42.359 28.6261H37.623L39.3275 24.5534V15.0485H40.5792Z" fill="#484558"/>
<path d="M53.6826 28.6273V8.86376H63.4126V28.6273H60.312V11.689H56.7837V28.6273H53.6826Z" fill="#484558"/>
<path d="M68.8291 18.3873H70.3038C70.8184 18.3873 71.2 18.2449 71.4481 17.9601C71.6963 17.6754 71.8198 17.1927 71.8198 16.5127V13.5498C71.8198 12.8698 71.6963 12.3898 71.4481 12.1097C71.2 11.8291 70.8184 11.6893 70.3038 11.6893H68.8291V18.3873ZM65.728 28.6271V8.86358H70.297C71.8287 8.86358 72.983 9.28184 73.7582 10.1178C74.533 10.9538 74.9209 12.1673 74.9209 13.7566V16.3201C74.9209 17.9094 74.5335 19.1202 73.7588 19.9515C72.984 20.7833 71.8313 21.1989 70.3006 21.1989H68.8291V28.6271H65.728Z" fill="#484558"/>
<path d="M79.5965 22.3566H82.5892L81.0884 12.4079L79.5965 22.3566ZM75.5552 28.6274L78.7003 8.86389H83.4906L86.6357 28.6274H83.5346L82.9944 25.0442H79.1929L78.6558 28.6274H75.5552Z" fill="#484558"/>
<path d="M90.9495 25.8017H92.7272C93.2696 25.8017 93.6737 25.6552 93.9402 25.361C94.2066 25.0668 94.3401 24.5663 94.3401 23.8586V22.1358C94.3401 21.2354 94.1862 20.6109 93.8784 20.2612C93.5701 19.9126 93.0581 19.7377 92.3414 19.7377H90.9495V25.8017ZM90.9495 16.9125H92.1676C92.7859 16.9125 93.2523 16.7539 93.5659 16.4372C93.88 16.1199 94.037 15.5849 94.037 14.8316V13.7287C94.037 13.0214 93.9119 12.5048 93.6632 12.1786C93.4135 11.8525 93.0125 11.6892 92.4587 11.6892H90.9495V16.9125ZM87.8484 28.6275V8.86395H92.5346C94.1239 8.86395 95.2886 9.23562 96.0283 9.98001C96.768 10.7244 97.1376 11.8682 97.1376 13.412V14.1145C97.1376 16.1362 96.467 17.4637 95.1258 18.0977C96.6691 18.6949 97.4407 20.1052 97.4407 22.329V23.9413C97.4407 25.4667 97.0413 26.6288 96.2419 27.4282C95.4425 28.2276 94.271 28.6275 92.7272 28.6275H87.8484Z" fill="#484558"/>
<path d="M102.141 24.0794C102.141 25.3839 102.68 26.0367 103.76 26.0367C104.83 26.0367 105.366 25.3839 105.366 24.0794V13.4118C105.366 12.1162 104.83 11.4687 103.76 11.4687C102.68 11.4687 102.141 12.1162 102.141 13.4118V24.0794ZM99.0396 23.8862V13.605C99.0396 12.0246 99.4468 10.8028 100.261 9.93854C101.075 9.07532 102.241 8.64345 103.76 8.64345C105.279 8.64345 106.443 9.07532 107.252 9.93854C108.062 10.8028 108.466 12.0246 108.466 13.605V23.8862C108.466 25.4671 108.062 26.6884 107.252 27.5522C106.443 28.4159 105.279 28.8478 103.76 28.8478C102.241 28.8478 101.075 28.4159 100.261 27.5522C99.4468 26.6884 99.0396 25.4671 99.0396 23.8862Z" fill="#484558"/>
<path d="M113.58 25.8017H115.357C115.9 25.8017 116.304 25.6552 116.57 25.361C116.837 25.0668 116.97 24.5663 116.97 23.8586V22.1358C116.97 21.2354 116.816 20.6109 116.509 20.2612C116.2 19.9126 115.688 19.7377 114.972 19.7377H113.58V25.8017ZM113.58 16.9125H114.798C115.416 16.9125 115.882 16.7539 116.196 16.4372C116.51 16.1199 116.667 15.5849 116.667 14.8316V13.7287C116.667 13.0214 116.542 12.5048 116.293 12.1786C116.044 11.8525 115.643 11.6892 115.089 11.6892H113.58V16.9125ZM110.479 28.6275V8.86395H115.165C116.754 8.86395 117.919 9.23562 118.658 9.98001C119.398 10.7244 119.768 11.8682 119.768 13.412V14.1145C119.768 16.1362 119.097 17.4637 117.756 18.0977C119.299 18.6949 120.071 20.1052 120.071 22.329V23.9413C120.071 25.4667 119.671 26.6288 118.872 27.4282C118.073 28.2276 116.901 28.6275 115.357 28.6275H110.479Z" fill="#484558"/>
<path d="M132.916 8.86357H136.017V28.6271H132.916V8.86357ZM125.033 25.8019H126.507C127.022 25.8019 127.403 25.6616 127.651 25.3821C127.899 25.1015 128.023 24.6214 128.023 23.9414V20.9785C128.023 20.2985 127.899 19.8185 127.651 19.5379C127.403 19.2578 127.022 19.1176 126.507 19.1176H125.033V25.8019ZM121.932 28.6271V8.86357H125.033V16.2923H126.504C128.035 16.2923 129.188 16.708 129.962 17.5398C130.737 18.3711 131.125 19.5819 131.125 21.1712V23.7483C131.125 25.3381 130.737 26.5489 129.961 27.3802C129.187 28.212 128.032 28.6271 126.501 28.6271H121.932Z" fill="#484558"/>
<path d="M138.263 28.6273V8.86376H146.726V11.689H141.365V17.2018H145.623V20.0134H141.365V25.8016H146.726V28.6273H138.263Z" fill="#484558"/>
<path d="M152.101 11.6891V8.86389H161.707V11.6891H158.455V28.6274H155.353V11.6891H152.101Z" fill="#484558"/>
<path d="M163.057 28.6273V8.86376H171.52V11.689H166.158V17.2018H170.417V20.0134H166.158V25.8016H171.52V28.6273H163.057Z" fill="#484558"/>
<path d="M172.732 28.6273L176.205 18.4414L172.953 8.86376H176.054L178.409 16.1904L180.799 8.86376H183.522L180.275 18.5581L183.73 28.6273H180.63L178.245 21.2771L175.834 28.6273H172.732Z" fill="#484558"/>
<path d="M185.563 28.6273V8.86376H188.665V17.3395H192.193V8.86376H195.294V28.6273H192.193V20.1652H188.665V28.6273H185.563Z" fill="#484558"/>
<path d="M200.448 24.0794C200.448 25.3839 200.988 26.0367 202.068 26.0367C203.139 26.0367 203.674 25.3839 203.674 24.0794V13.4118C203.674 12.1162 203.139 11.4687 202.068 11.4687C200.988 11.4687 200.448 12.1162 200.448 13.4118V24.0794ZM197.348 23.8862V13.605C197.348 12.0246 197.755 10.8028 198.569 9.93854C199.383 9.07532 200.55 8.64345 202.068 8.64345C203.587 8.64345 204.75 9.07532 205.56 9.93854C206.37 10.8028 206.775 12.0246 206.775 13.605V23.8862C206.775 25.4671 206.37 26.6884 205.56 27.5522C204.75 28.4159 203.587 28.8478 202.068 28.8478C200.55 28.8478 199.383 28.4159 198.569 27.5522C197.755 26.6884 197.348 25.4671 197.348 23.8862Z" fill="#484558"/>
<path d="M207.932 28.655V25.8293C208.313 25.8293 208.607 25.8115 208.815 25.7743C209.024 25.7377 209.21 25.6481 209.372 25.5058C209.536 25.3634 209.649 25.1587 209.712 24.8922C209.775 24.6263 209.816 24.263 209.835 23.8034L210.179 8.86373H219.068V28.6273H215.967V11.689H213.28L212.935 23.638C212.88 25.4393 212.501 26.7249 211.798 27.4976C211.096 28.2692 209.968 28.655 208.415 28.655H207.932Z" fill="#484558"/>
<path d="M224.319 24.0794C224.319 25.3839 224.859 26.0367 225.938 26.0367C227.009 26.0367 227.544 25.3839 227.544 24.0794V13.4118C227.544 12.1162 227.009 11.4687 225.938 11.4687C224.859 11.4687 224.319 12.1162 224.319 13.4118V24.0794ZM221.218 23.8862V13.605C221.218 12.0246 221.625 10.8028 222.439 9.93854C223.253 9.07532 224.42 8.64345 225.938 8.64345C227.457 8.64345 228.621 9.07532 229.431 9.93854C230.24 10.8028 230.645 12.0246 230.645 13.605V23.8862C230.645 25.4671 230.24 26.6884 229.431 27.5522C228.621 28.4159 227.457 28.8478 225.938 28.8478C224.42 28.8478 223.253 28.4159 222.439 27.5522C221.625 26.6884 221.218 25.4671 221.218 23.8862Z" fill="#484558"/>
<path d="M232.685 28.6273V8.86376H240.872V11.689H235.786V28.6273H232.685Z" fill="#484558"/>
<path d="M242.952 28.6273V8.86376H245.723V21.3776L246.853 17.0228L249.389 8.86376H253.11V28.6273H250.009V14.7367L248.753 19.5758L246.136 28.6273H242.952Z" fill="#484558"/>
<path d="M254.998 28.6273V8.86376H257.769V21.3776L258.899 17.0228L261.435 8.86376H265.156V28.6273H262.055V14.7367L260.799 19.5758L258.182 28.6273H254.998Z" fill="#484558"/>
<path d="M54.5791 31.8408C54.4419 31.8408 54.31 31.8439 54.1833 31.8491C54.0566 31.8544 53.9561 31.8675 53.8823 31.8884V34.1844C53.9085 34.1949 53.9509 34.2011 54.009 34.2043C54.0671 34.2064 54.1278 34.2095 54.1912 34.2121C54.2545 34.2142 54.3152 34.2158 54.3733 34.2158H54.5C54.6791 34.2158 54.8576 34.199 55.034 34.1645C55.2109 34.1305 55.3706 34.0682 55.513 33.9781C55.6553 33.8886 55.7705 33.7619 55.8574 33.5981C55.9443 33.4348 55.9883 33.2264 55.9883 32.973C55.9883 32.7569 55.9469 32.5762 55.8653 32.4307C55.7836 32.2852 55.6752 32.1695 55.5407 32.0821C55.4062 31.9952 55.2544 31.9329 55.0858 31.8962C54.9167 31.8596 54.7482 31.8408 54.5791 31.8408ZM53.2253 31.3895C53.4258 31.3419 53.642 31.3105 53.8745 31.2942C54.1069 31.2791 54.3362 31.2712 54.5634 31.2712C54.8057 31.2712 55.0528 31.2942 55.3036 31.3419C55.5538 31.3895 55.7826 31.4769 55.9883 31.6036C56.194 31.7298 56.3615 31.9046 56.4908 32.1261C56.6201 32.3475 56.6845 32.6302 56.6845 32.973C56.6845 33.3107 56.6238 33.5955 56.5029 33.8279C56.3809 34.0603 56.2202 34.2488 56.0197 34.3938C55.8192 34.5388 55.5899 34.6435 55.3313 34.7068C55.0722 34.7696 54.8057 34.8016 54.5314 34.8016H54.4011C54.3404 34.8016 54.277 34.8005 54.2111 34.7974C54.1451 34.7953 54.0802 34.7911 54.0168 34.7859C53.9535 34.7806 53.9085 34.7754 53.8823 34.7696V36.8756H53.2253V31.3895Z" fill="#F26722"/>
<path d="M58.83 33.3764C58.5186 33.3764 58.2694 33.4586 58.082 33.622C57.8946 33.7858 57.782 34.0653 57.7454 34.4611H59.709C59.709 34.0601 59.632 33.7795 59.4792 33.6178C59.3258 33.4571 59.1096 33.3764 58.83 33.3764ZM60.1916 36.5587C60.0335 36.6854 59.8341 36.7859 59.5938 36.8597C59.3535 36.9335 59.0991 36.9702 58.83 36.9702C58.529 36.9702 58.2678 36.922 58.0464 36.8241C57.825 36.7262 57.6428 36.5864 57.4999 36.4048C57.3575 36.2226 57.2523 36.0049 57.1837 35.7515C57.1146 35.4981 57.0806 35.2128 57.0806 34.8966C57.0806 34.2213 57.2308 33.7062 57.5318 33.3529C57.8323 32.9995 58.2626 32.8226 58.8222 32.8226C59.0012 32.8226 59.1808 32.8425 59.3603 32.8818C59.5399 32.9215 59.7006 32.9969 59.8435 33.1079C59.9859 33.2184 60.1021 33.3754 60.1916 33.5785C60.2811 33.7816 60.3262 34.0496 60.3262 34.3821C60.3262 34.5559 60.3105 34.749 60.279 34.96H57.7375C57.7375 35.1919 57.7611 35.3981 57.8087 35.5777C57.8564 35.7567 57.9302 35.9085 58.0307 36.0326C58.1307 36.1567 58.261 36.2514 58.4223 36.3179C58.583 36.3839 58.7798 36.4163 59.0122 36.4163C59.1912 36.4163 59.3708 36.3849 59.5504 36.3216C59.7299 36.2577 59.8644 36.1844 59.954 36.1001L60.1916 36.5587Z" fill="#F26722"/>
<path d="M63.6349 33.4717H61.9567V36.8754H61.3232V32.9179H63.6349V33.4717Z" fill="#F26722"/>
<path d="M66.7145 34.5326L66.738 34.0416H66.7145L66.3899 34.5483L64.6085 36.8757H64.2441V32.9177H64.8781V35.332L64.854 35.7989H64.8859L65.1943 35.3084L66.9757 32.9177H67.3479V36.8757H66.7145V34.5326Z" fill="#F26722"/>
<path d="M69.0022 34.8966C69.0022 35.0971 69.0221 35.2898 69.0619 35.4746C69.1011 35.6594 69.1629 35.8201 69.2477 35.9577C69.332 36.0944 69.443 36.2053 69.5801 36.2902C69.7173 36.3739 69.8837 36.4163 70.079 36.4163C70.7967 36.4215 71.1553 35.9153 71.1553 34.8966C71.1553 34.6904 71.1359 34.4957 71.0961 34.3103C71.0563 34.1261 70.9946 33.9648 70.9098 33.8277C70.8255 33.6911 70.715 33.5811 70.5773 33.4995C70.4402 33.4178 70.2742 33.3764 70.079 33.3764C69.3613 33.3717 69.0022 33.8779 69.0022 34.8966ZM68.3452 34.8966C68.3452 34.2266 68.4944 33.713 68.7923 33.3571C69.0907 33.0006 69.5194 32.8226 70.079 32.8226C70.3742 32.8226 70.6318 32.8713 70.8506 32.9692C71.0694 33.0671 71.2505 33.2063 71.3929 33.3885C71.5353 33.5701 71.6411 33.7895 71.7096 34.0455C71.7782 34.302 71.8122 34.5852 71.8122 34.8966C71.8122 35.5667 71.663 36.0802 71.3652 36.4362C71.0668 36.7927 70.6381 36.9702 70.079 36.9702C69.7832 36.9702 69.5257 36.922 69.3069 36.8241C69.088 36.7262 68.9069 36.5864 68.7645 36.4048C68.6221 36.2226 68.5169 36.0038 68.4483 35.7478C68.3792 35.4913 68.3452 35.2081 68.3452 34.8966Z" fill="#F26722"/>
<path d="M75.232 35.1261H73.4433V36.8755H72.8093V32.9175H73.4433V34.5722H75.232V32.9175H75.8654V36.8755H75.232V35.1261Z" fill="#F26722"/>
<path d="M78.1453 36.3848C78.2929 36.3848 78.4248 36.3649 78.541 36.3256C78.6572 36.2858 78.7572 36.2356 78.842 36.1748C78.9263 36.1146 78.9965 36.0471 79.0514 35.9733C79.1069 35.8995 79.1477 35.8283 79.1744 35.7592V35.1022C79.1006 35.0975 79.0252 35.0928 78.9488 35.0907C78.8719 35.0881 78.797 35.0865 78.7232 35.0865C78.5593 35.0865 78.3997 35.0959 78.2442 35.1143C78.0882 35.1326 77.9516 35.1666 77.8328 35.2174C77.7139 35.2676 77.6186 35.3362 77.5475 35.4231C77.4763 35.51 77.4407 35.6199 77.4407 35.7513C77.4407 35.9361 77.5066 36.0879 77.6385 36.2068C77.7705 36.3256 77.9395 36.3848 78.1453 36.3848ZM77.0214 33.2104C77.2218 33.0894 77.4553 32.9994 77.7218 32.9413C77.9882 32.8832 78.2667 32.8539 78.5567 32.8539C78.831 32.8539 79.0514 32.891 79.2179 32.9648C79.3838 33.0392 79.5105 33.1355 79.5979 33.2538C79.6848 33.3726 79.7429 33.5035 79.7717 33.6459C79.801 33.7883 79.8157 33.9312 79.8157 34.0736C79.8157 34.3898 79.8078 34.6986 79.7916 34.9996C79.7759 35.3006 79.7681 35.5854 79.7681 35.8545C79.7681 36.0497 79.7759 36.2345 79.7916 36.4088C79.8078 36.5826 79.8366 36.7439 79.879 36.8915H79.4116L79.2456 36.3371H79.2058C79.1587 36.4115 79.0991 36.4837 79.0279 36.5549C78.9567 36.6261 78.8708 36.6894 78.7703 36.7449C78.6703 36.8004 78.5541 36.8465 78.4222 36.8836C78.2903 36.9203 78.14 36.9386 77.9709 36.9386C77.8024 36.9386 77.6453 36.9124 77.5003 36.8596C77.3548 36.8072 77.2297 36.7318 77.124 36.6339C77.0187 36.5366 76.9355 36.4193 76.8748 36.2816C76.8141 36.1445 76.7837 35.989 76.7837 35.8147C76.7837 35.5828 76.8313 35.3891 76.9261 35.2331C77.0214 35.0776 77.1543 34.9536 77.326 34.8614C77.4972 34.7688 77.7035 34.7028 77.9432 34.663C78.1835 34.6238 78.4484 34.6033 78.7389 34.6033H78.9567C79.0279 34.6033 79.1006 34.6091 79.1744 34.6196C79.1901 34.461 79.198 34.3186 79.198 34.1919C79.198 33.9019 79.1399 33.6988 79.0242 33.5826C78.908 33.4663 78.6965 33.4088 78.3908 33.4088C78.3007 33.4088 78.2044 33.4156 78.1018 33.4292C77.9987 33.4428 77.893 33.4611 77.7851 33.4857C77.6768 33.5103 77.5742 33.5402 77.4763 33.5752C77.3784 33.6108 77.293 33.6501 77.2192 33.6935L77.0214 33.2104Z" fill="#F26722"/>
<path d="M83.1402 33.4717H81.9922C81.9765 33.6932 81.9608 33.9319 81.9451 34.1879C81.9289 34.4444 81.9053 34.6998 81.8734 34.9558C81.842 35.2123 81.7996 35.4573 81.7467 35.6923C81.6944 35.9269 81.6268 36.1342 81.5452 36.3137C81.463 36.4933 81.363 36.6372 81.2442 36.7451C81.1253 36.8534 80.9845 36.9073 80.8207 36.9073C80.7207 36.9073 80.6333 36.9021 80.5594 36.8916C80.4856 36.8812 80.4197 36.8623 80.3616 36.8362L80.4563 36.3053C80.5202 36.3268 80.5888 36.3373 80.6626 36.3373C80.7678 36.3373 80.8631 36.2923 80.9473 36.2027C81.0316 36.1132 81.1054 35.9431 81.1688 35.6923C81.2326 35.4416 81.285 35.0945 81.3274 34.6511C81.3693 34.2077 81.3986 33.6303 81.4143 32.9179H83.7736V36.8754H83.1402V33.4717Z" fill="#F26722"/>
<path d="M85.6258 36.3216C85.8211 36.353 86.0085 36.3693 86.1881 36.3693C86.5205 36.3693 86.766 36.3043 86.9241 36.175C87.0822 36.0457 87.1617 35.8625 87.1617 35.6249C87.1617 35.4139 87.0848 35.2396 86.9319 35.1024C86.7791 34.9653 86.5388 34.8967 86.2116 34.8967C86.1216 34.8967 86.0242 34.8993 85.9185 34.9045C85.8127 34.9098 85.7154 34.926 85.6258 34.9522V36.3216ZM85.6258 34.4297C85.7525 34.4088 85.8735 34.3936 85.9897 34.3858C86.1059 34.3779 86.2169 34.3743 86.3221 34.3743C86.5964 34.3743 86.8288 34.4046 87.0188 34.4653C87.2089 34.5261 87.3633 34.6088 87.4821 34.7145C87.6009 34.8203 87.6863 34.9454 87.7397 35.0904C87.792 35.2359 87.8187 35.3898 87.8187 35.5537C87.8187 36.0337 87.6748 36.3823 87.3868 36.5985C87.0994 36.8147 86.6524 36.9231 86.0452 36.9231C85.7075 36.9231 85.3568 36.9074 84.9924 36.8755V32.9179H85.6258V34.4297Z" fill="#F26722"/>
<path d="M91.0877 35.1261H89.299V36.8755H88.665V32.9175H89.299V34.5722H91.0877V32.9175H91.7211V36.8755H91.0877V35.1261Z" fill="#F26722"/>
<path d="M96.3125 32.9176H96.9459V36.8756H96.3125V32.9176ZM93.5736 36.3218C93.7689 36.3532 93.9563 36.3694 94.1358 36.3694C94.4682 36.3694 94.7001 36.3045 94.8321 36.1747C94.964 36.0454 95.0299 35.8622 95.0299 35.6245C95.0299 35.4136 94.9655 35.2398 94.8362 35.1021C94.7069 34.9649 94.4813 34.8969 94.1594 34.8969C94.0699 34.8969 93.972 34.899 93.8662 34.9042C93.761 34.91 93.6631 34.9257 93.5736 34.9518V36.3218ZM93.5736 34.4294C93.7003 34.4085 93.8217 34.3938 93.9374 34.386C94.0536 34.3781 94.1646 34.3744 94.2698 34.3744C94.5394 34.3744 94.765 34.4043 94.9472 34.465C95.1289 34.5257 95.2754 34.609 95.3864 34.7142C95.4974 34.8204 95.5749 34.945 95.6199 35.0906C95.6644 35.2361 95.6874 35.39 95.6874 35.5539C95.6874 36.0339 95.5539 36.3825 95.2875 36.5987C95.021 36.8149 94.5892 36.9233 93.9929 36.9233C93.6553 36.9233 93.3045 36.907 92.9402 36.8756V32.9176H93.5736V34.4294Z" fill="#F26722"/>
<path d="M99.0754 31.3183C99.1282 31.5612 99.2188 31.7298 99.3486 31.8251C99.4779 31.9198 99.6266 31.9674 99.7957 31.9674C99.9642 31.9674 100.115 31.9177 100.247 31.8172C100.379 31.7167 100.468 31.5534 100.516 31.3267L100.991 31.4769C100.944 31.7832 100.808 32.0177 100.584 32.1815C100.359 32.3454 100.091 32.4271 99.78 32.4271C99.6376 32.4271 99.4963 32.4082 99.3565 32.3716C99.2167 32.3344 99.0911 32.2789 98.9801 32.2051C98.8696 32.1313 98.7744 32.036 98.6953 31.9198C98.6163 31.8041 98.5634 31.667 98.5372 31.5083L99.0754 31.3183ZM100.635 34.5325L100.658 34.042H100.635L100.31 34.5482L98.5289 36.8756H98.165V32.9176H98.7985V35.3319L98.7744 35.7993H98.8063L99.1152 35.3083L100.896 32.9176H101.268V36.8756H100.635V34.5325Z" fill="#F26722"/>
<path d="M108.155 37.8811H107.727L107.609 36.8755H104.601V32.9174H105.234V36.3216H106.952V32.9174H107.585V36.3216H108.155V37.8811Z" fill="#F26722"/>
<path d="M110.467 33.3764C110.155 33.3764 109.906 33.4586 109.718 33.622C109.531 33.7858 109.419 34.0653 109.382 34.4611H111.345C111.345 34.0601 111.268 33.7795 111.116 33.6178C110.962 33.4571 110.746 33.3764 110.467 33.3764ZM111.828 36.5587C111.67 36.6854 111.471 36.7859 111.23 36.8597C110.99 36.9335 110.736 36.9702 110.467 36.9702C110.166 36.9702 109.904 36.922 109.683 36.8241C109.461 36.7262 109.279 36.5864 109.136 36.4048C108.994 36.2226 108.889 36.0049 108.82 35.7515C108.751 35.4981 108.717 35.2128 108.717 34.8966C108.717 34.2213 108.867 33.7062 109.168 33.3529C109.469 32.9995 109.899 32.8226 110.459 32.8226C110.638 32.8226 110.817 32.8425 110.997 32.8818C111.176 32.9215 111.337 32.9969 111.48 33.1079C111.622 33.2184 111.739 33.3754 111.828 33.5785C111.918 33.7816 111.963 34.0496 111.963 34.3821C111.963 34.5559 111.947 34.749 111.915 34.96H109.374C109.374 35.1919 109.398 35.3981 109.445 35.5777C109.493 35.7567 109.567 35.9085 109.667 36.0326C109.767 36.1567 109.897 36.2514 110.059 36.3179C110.219 36.3839 110.416 36.4163 110.649 36.4163C110.828 36.4163 111.007 36.3849 111.187 36.3216C111.366 36.2577 111.501 36.1844 111.59 36.1001L111.828 36.5587Z" fill="#F26722"/>
<path d="M115.382 35.1261H113.593V36.8755H112.959V32.9175H113.593V34.5722H115.382V32.9175H116.016V36.8755H115.382V35.1261Z" fill="#F26722"/>
<path d="M119.76 33.4717H118.517V36.8754H117.884V33.4717H116.641V32.9179H119.76V33.4717Z" fill="#F26722"/>
<path d="M121.984 33.3764C121.715 33.3764 121.503 33.4466 121.347 33.5863C121.191 33.7261 121.082 33.9387 121.018 34.2234V36.187C121.114 36.2608 121.222 36.3179 121.343 36.3571C121.464 36.3969 121.625 36.4163 121.826 36.4163C122.19 36.4163 122.479 36.2807 122.693 36.0085C122.907 35.7368 123.013 35.3374 123.013 34.8097C123.013 34.5935 122.995 34.3967 122.958 34.2198C122.921 34.0428 122.862 33.8926 122.78 33.7685C122.698 33.6445 122.593 33.5481 122.463 33.4796C122.334 33.411 122.174 33.3764 121.984 33.3764ZM120.385 32.9179H120.821L120.939 33.3927H120.971C121.092 33.2079 121.249 33.0671 121.442 32.9692C121.635 32.8713 121.855 32.8226 122.103 32.8226C122.631 32.8226 123.024 32.9786 123.282 33.2895C123.541 33.601 123.67 34.1104 123.67 34.8176C123.67 35.15 123.627 35.4494 123.54 35.7159C123.453 35.9823 123.33 36.2079 123.172 36.3927C123.013 36.5775 122.822 36.7199 122.598 36.8204C122.373 36.9204 122.124 36.9701 121.85 36.9701C121.654 36.9701 121.5 36.9586 121.387 36.9351C121.273 36.911 121.15 36.8702 121.018 36.8126V38.4589H120.385V32.9179Z" fill="#F26722"/>
<path d="M127.874 34.3105H127.501V36.8756H126.844V31.3345H127.501V33.9148L127.858 33.8043L129.718 31.3345H130.478L128.626 33.7169L128.293 33.9781L128.697 34.2948L130.723 36.8756H129.892L127.874 34.3105Z" fill="#F26722"/>
<path d="M131.531 34.8966C131.531 35.0971 131.551 35.2898 131.591 35.4746C131.63 35.6594 131.692 35.8201 131.777 35.9577C131.861 36.0944 131.972 36.2053 132.109 36.2902C132.246 36.3739 132.413 36.4163 132.608 36.4163C133.325 36.4215 133.684 35.9153 133.684 34.8966C133.684 34.6904 133.665 34.4957 133.625 34.3103C133.585 34.1261 133.523 33.9648 133.439 33.8277C133.354 33.6911 133.244 33.5811 133.106 33.4995C132.969 33.4178 132.803 33.3764 132.608 33.3764C131.89 33.3717 131.531 33.8779 131.531 34.8966ZM130.874 34.8966C130.874 34.2266 131.023 33.713 131.321 33.3571C131.619 33.0006 132.048 32.8226 132.608 32.8226C132.903 32.8226 133.161 32.8713 133.379 32.9692C133.598 33.0671 133.779 33.2063 133.922 33.3885C134.064 33.5701 134.17 33.7895 134.238 34.0455C134.307 34.302 134.341 34.5852 134.341 34.8966C134.341 35.5667 134.192 36.0802 133.894 36.4362C133.596 36.7927 133.167 36.9702 132.608 36.9702C132.312 36.9702 132.054 36.922 131.836 36.8241C131.617 36.7262 131.436 36.5864 131.294 36.4048C131.151 36.2226 131.046 36.0038 130.977 35.7478C130.908 35.4913 130.874 35.2081 130.874 34.8966Z" fill="#F26722"/>
<path d="M137.761 35.1261H135.972V36.8755H135.338V32.9175H135.972V34.5722H137.761V32.9175H138.395V36.8755H137.761V35.1261Z" fill="#F26722"/>
<path d="M142.313 36.6142C142.154 36.7304 141.967 36.8189 141.75 36.8796C141.534 36.9403 141.307 36.9702 141.069 36.9702C140.763 36.9702 140.505 36.922 140.294 36.8241C140.083 36.7262 139.91 36.5864 139.775 36.4048C139.641 36.2226 139.543 36.0038 139.482 35.7478C139.422 35.4913 139.391 35.2081 139.391 34.8966C139.391 34.2266 139.539 33.713 139.835 33.3571C140.13 33.0006 140.555 32.8226 141.109 32.8226C141.363 32.8226 141.577 32.8425 141.754 32.8818C141.931 32.9215 142.091 32.9786 142.234 33.0524L142.051 33.5979C141.929 33.5298 141.795 33.4759 141.647 33.4361C141.5 33.3963 141.342 33.3764 141.173 33.3764C140.423 33.3764 140.049 33.8832 140.049 34.8966C140.049 35.0977 140.068 35.2882 140.108 35.4709C140.148 35.6525 140.213 35.8138 140.306 35.953C140.398 36.0933 140.519 36.2053 140.67 36.2902C140.82 36.3739 141.007 36.4163 141.228 36.4163C141.418 36.4163 141.588 36.3875 141.739 36.3294C141.889 36.2713 142.012 36.2053 142.106 36.1315L142.313 36.6142Z" fill="#F26722"/>
<path d="M144.24 35.4823L144.462 36.2424H144.502L144.677 35.4744L145.447 32.9177H146.081L144.909 36.4717C144.819 36.7303 144.731 36.981 144.644 37.2239C144.557 37.4668 144.46 37.683 144.355 37.873C144.25 38.0631 144.13 38.2143 143.999 38.3285C143.867 38.4415 143.714 38.4986 143.539 38.4986C143.349 38.4986 143.194 38.4719 143.072 38.419L143.183 37.873C143.252 37.8997 143.318 37.9128 143.381 37.9128C143.529 37.9128 143.672 37.8343 143.809 37.6788C143.946 37.5233 144.06 37.2558 144.149 36.8758L142.558 32.9177H143.286L144.24 35.4823Z" fill="#F26722"/>
<path d="M148.78 33.4717H147.632C147.617 33.6932 147.601 33.9319 147.585 34.1879C147.569 34.4444 147.545 34.6998 147.514 34.9558C147.482 35.2123 147.44 35.4573 147.387 35.6923C147.334 35.9269 147.267 36.1342 147.185 36.3137C147.103 36.4933 147.003 36.6372 146.884 36.7451C146.765 36.8534 146.625 36.9073 146.461 36.9073C146.361 36.9073 146.273 36.9021 146.2 36.8916C146.126 36.8812 146.06 36.8623 146.002 36.8362L146.096 36.3053C146.16 36.3268 146.228 36.3373 146.303 36.3373C146.408 36.3373 146.503 36.2923 146.587 36.2027C146.672 36.1132 146.746 35.9431 146.809 35.6923C146.872 35.4416 146.925 35.0945 146.968 34.6511C147.01 34.2077 147.039 33.6303 147.054 32.9179H149.414V36.8754H148.78V33.4717Z" fill="#F26722"/>
<path d="M151.266 36.3216C151.461 36.353 151.649 36.3693 151.828 36.3693C152.16 36.3693 152.406 36.3043 152.564 36.175C152.722 36.0457 152.802 35.8625 152.802 35.6249C152.802 35.4139 152.725 35.2396 152.572 35.1024C152.419 34.9653 152.179 34.8967 151.852 34.8967C151.762 34.8967 151.664 34.8993 151.559 34.9045C151.453 34.9098 151.356 34.926 151.266 34.9522V36.3216ZM151.266 34.4297C151.392 34.4088 151.514 34.3936 151.63 34.3858C151.746 34.3779 151.857 34.3743 151.962 34.3743C152.237 34.3743 152.469 34.4046 152.659 34.4653C152.849 34.5261 153.004 34.6088 153.122 34.7145C153.241 34.8203 153.327 34.9454 153.38 35.0904C153.432 35.2359 153.459 35.3898 153.459 35.5537C153.459 36.0337 153.315 36.3823 153.027 36.5985C152.74 36.8147 152.292 36.9231 151.686 36.9231C151.348 36.9231 150.997 36.9074 150.632 36.8755V32.9179H151.266V34.4297Z" fill="#F26722"/>
<path d="M156.546 33.4717H155.303V36.8754H154.669V33.4717H153.427V32.9179H156.546V33.4717Z" fill="#F26722"/>
<path d="M158.232 36.3848C158.38 36.3848 158.511 36.3649 158.628 36.3256C158.744 36.2858 158.844 36.2356 158.928 36.1748C159.013 36.1146 159.083 36.0471 159.138 35.9733C159.194 35.8995 159.234 35.8283 159.261 35.7592V35.1022C159.187 35.0975 159.112 35.0928 159.035 35.0907C158.959 35.0881 158.884 35.0865 158.81 35.0865C158.646 35.0865 158.486 35.0959 158.331 35.1143C158.175 35.1326 158.038 35.1666 157.919 35.2174C157.801 35.2676 157.706 35.3362 157.634 35.4231C157.563 35.51 157.527 35.6199 157.527 35.7513C157.527 35.9361 157.593 36.0879 157.725 36.2068C157.857 36.3256 158.026 36.3848 158.232 36.3848ZM157.108 33.2104C157.308 33.0894 157.542 32.9994 157.808 32.9413C158.075 32.8832 158.353 32.8539 158.643 32.8539C158.918 32.8539 159.138 32.891 159.305 32.9648C159.47 33.0392 159.598 33.1355 159.685 33.2538C159.772 33.3726 159.83 33.5035 159.858 33.6459C159.888 33.7883 159.902 33.9312 159.902 34.0736C159.902 34.3898 159.895 34.6986 159.878 34.9996C159.863 35.3006 159.855 35.5854 159.855 35.8545C159.855 36.0497 159.863 36.2345 159.878 36.4088C159.895 36.5826 159.923 36.7439 159.966 36.8915H159.498L159.332 36.3371H159.293C159.245 36.4115 159.186 36.4837 159.115 36.5549C159.043 36.6261 158.957 36.6894 158.858 36.7449C158.757 36.8004 158.641 36.8465 158.509 36.8836C158.377 36.9203 158.227 36.9386 158.058 36.9386C157.889 36.9386 157.732 36.9124 157.586 36.8596C157.441 36.8072 157.316 36.7318 157.211 36.6339C157.105 36.5366 157.022 36.4193 156.961 36.2816C156.901 36.1445 156.87 35.989 156.87 35.8147C156.87 35.5828 156.918 35.3891 157.013 35.2331C157.108 35.0776 157.241 34.9536 157.413 34.8614C157.584 34.7688 157.79 34.7028 158.03 34.663C158.27 34.6238 158.535 34.6033 158.826 34.6033H159.043C159.115 34.6033 159.187 34.6091 159.261 34.6196C159.277 34.461 159.285 34.3186 159.285 34.1919C159.285 33.9019 159.227 33.6988 159.111 33.5826C158.995 33.4663 158.784 33.4088 158.477 33.4088C158.387 33.4088 158.291 33.4156 158.188 33.4292C158.086 33.4428 157.98 33.4611 157.872 33.4857C157.763 33.5103 157.66 33.5402 157.563 33.5752C157.465 33.6108 157.38 33.6501 157.306 33.6935L157.108 33.2104Z" fill="#F26722"/>
<path d="M163.52 35.1261H161.731V36.8755H161.097V32.9175H161.731V34.5722H163.52V32.9175H164.154V36.8755H163.52V35.1261Z" fill="#F26722"/>
<path d="M167.897 33.4717H166.655V36.8754H166.021V33.4717H164.779V32.9179H167.897V33.4717Z" fill="#F26722"/>
<path d="M171.8 31.9199H169.244V36.8757H168.587V31.3341H172.457V36.8757H171.8V31.9199Z" fill="#F26722"/>
<path d="M175.869 33.4717H174.721C174.705 33.6932 174.69 33.9319 174.673 34.1879C174.658 34.4444 174.634 34.6998 174.603 34.9558C174.571 35.2123 174.529 35.4573 174.475 35.6923C174.423 35.9269 174.356 36.1342 174.274 36.3137C174.192 36.4933 174.092 36.6372 173.973 36.7451C173.854 36.8534 173.713 36.9073 173.549 36.9073C173.449 36.9073 173.362 36.9021 173.288 36.8916C173.214 36.8812 173.148 36.8623 173.09 36.8362L173.185 36.3053C173.248 36.3268 173.317 36.3373 173.391 36.3373C173.497 36.3373 173.592 36.2923 173.676 36.2027C173.76 36.1132 173.835 35.9431 173.898 35.6923C173.961 35.4416 174.014 35.0945 174.056 34.6511C174.099 34.2077 174.127 33.6303 174.143 32.9179H176.502V36.8754H175.869V33.4717Z" fill="#F26722"/>
<path d="M179.764 34.8966C179.764 35.1024 179.78 35.2976 179.811 35.4824C179.843 35.6667 179.899 35.8295 179.978 35.9693C180.058 36.109 180.165 36.2184 180.3 36.298C180.435 36.377 180.603 36.4163 180.805 36.4163C181.144 36.4163 181.388 36.2938 181.536 36.0483C181.684 35.8028 181.758 35.4191 181.758 34.8966C181.758 34.6904 181.744 34.4957 181.715 34.3103C181.686 34.1261 181.634 33.9638 181.559 33.824C181.486 33.6843 181.388 33.5748 181.266 33.4953C181.144 33.4162 180.988 33.3764 180.797 33.3764C180.431 33.3764 180.167 33.4995 180.006 33.745C179.844 33.9905 179.764 34.3742 179.764 34.8966ZM180.792 36.9702C180.508 36.9702 180.263 36.9272 180.061 36.8403C179.857 36.7529 179.691 36.6294 179.562 36.4676C179.432 36.3069 179.335 36.1116 179.269 35.8824C179.203 35.6525 179.162 35.4008 179.146 35.1259H178.355V36.8754H177.721V32.9179H178.355V34.5721H179.154C179.196 34.0072 179.351 33.5748 179.617 33.2738C179.884 32.9728 180.281 32.8226 180.809 32.8226C181.099 32.8226 181.346 32.8713 181.549 32.9692C181.752 33.0671 181.918 33.2063 182.047 33.3885C182.177 33.5701 182.271 33.7895 182.328 34.0455C182.386 34.302 182.415 34.5852 182.415 34.8966C182.415 35.5667 182.282 36.0802 182.016 36.4362C181.749 36.7927 181.342 36.9702 180.792 36.9702Z" fill="#F26722"/>
<path d="M186.113 36.6142C185.954 36.7304 185.767 36.8189 185.55 36.8796C185.334 36.9403 185.107 36.9702 184.869 36.9702C184.563 36.9702 184.305 36.922 184.094 36.8241C183.883 36.7262 183.71 36.5864 183.575 36.4048C183.441 36.2226 183.343 36.0038 183.282 35.7478C183.222 35.4913 183.191 35.2081 183.191 34.8966C183.191 34.2266 183.339 33.713 183.635 33.3571C183.93 33.0006 184.355 32.8226 184.909 32.8226C185.163 32.8226 185.377 32.8425 185.554 32.8818C185.731 32.9215 185.891 32.9786 186.034 33.0524L185.851 33.5979C185.73 33.5298 185.595 33.4759 185.447 33.4361C185.3 33.3963 185.142 33.3764 184.973 33.3764C184.223 33.3764 183.849 33.8832 183.849 34.8966C183.849 35.0977 183.869 35.2882 183.908 35.4709C183.948 35.6525 184.013 35.8138 184.106 35.953C184.198 36.0933 184.319 36.2053 184.47 36.2902C184.62 36.3739 184.807 36.4163 185.028 36.4163C185.218 36.4163 185.388 36.3875 185.539 36.3294C185.689 36.2713 185.812 36.2053 185.906 36.1315L186.113 36.6142Z" fill="#F26722"/>
<path d="M189.73 36.3454C189.83 36.3558 189.93 36.3637 190.027 36.3689C190.125 36.3742 190.239 36.3768 190.371 36.3768C190.725 36.3768 190.987 36.3271 191.159 36.2265C191.33 36.126 191.416 35.9549 191.416 35.712C191.416 35.5219 191.343 35.3675 191.199 35.2492C191.053 35.1298 190.796 35.0707 190.427 35.0707H189.73V36.3454ZM190.506 34.588C190.601 34.588 190.693 34.5718 190.783 34.5404C190.873 34.509 190.953 34.465 191.025 34.4095C191.096 34.354 191.153 34.2897 191.199 34.2158C191.243 34.142 191.266 34.0625 191.266 33.9782C191.266 33.7672 191.203 33.6206 191.076 33.539C190.949 33.4573 190.728 33.4165 190.411 33.4165C190.242 33.4165 190.109 33.4186 190.012 33.4238C189.914 33.4296 189.82 33.4348 189.73 33.44V34.588H190.506ZM189.097 32.9255C189.281 32.915 189.476 32.9014 189.679 32.8857C189.882 32.87 190.134 32.8621 190.435 32.8621C190.957 32.8621 191.332 32.9422 191.559 33.1034C191.786 33.2647 191.899 33.5086 191.899 33.8358C191.899 34.0206 191.845 34.2012 191.737 34.3781C191.629 34.5551 191.45 34.6859 191.203 34.7697V34.8016C191.514 34.8597 191.733 34.9676 191.86 35.1262C191.986 35.2843 192.05 35.4952 192.05 35.7591C192.05 36.1711 191.902 36.4694 191.607 36.6542C191.31 36.8385 190.867 36.9312 190.277 36.9312C190.055 36.9312 189.849 36.9243 189.659 36.9113C189.469 36.8982 189.281 36.8835 189.097 36.8678V32.9255Z" fill="#F26722"/>
<path d="M195.651 34.2551V33.7012H195.778H195.952C196.021 33.7012 196.091 33.6986 196.162 33.6934C196.233 33.6882 196.302 33.684 196.368 33.6814C196.434 33.6787 196.488 33.6725 196.53 33.6615C196.667 33.641 196.796 33.6049 196.918 33.5547C197.039 33.5049 197.145 33.44 197.235 33.361C197.324 33.2814 197.396 33.1893 197.448 33.0841C197.501 32.9783 197.528 32.8621 197.528 32.7354C197.528 32.5616 197.499 32.4161 197.44 32.2999C197.383 32.1837 197.302 32.09 197.199 32.0193C197.096 31.9476 196.977 31.8973 196.843 31.8685C196.708 31.8397 196.564 31.8251 196.411 31.8251C196.126 31.8251 195.884 31.845 195.683 31.8842C195.482 31.924 195.322 31.9727 195.2 32.0308L195.026 31.5084C195.132 31.4503 195.322 31.3911 195.596 31.3304C195.871 31.2697 196.179 31.2388 196.522 31.2388C196.733 31.2388 196.94 31.2618 197.144 31.3063C197.346 31.3513 197.529 31.4251 197.69 31.5283C197.851 31.6314 197.98 31.7712 198.078 31.9476C198.175 32.1245 198.224 32.3423 198.224 32.6009C198.224 32.8647 198.137 33.117 197.963 33.3568C197.789 33.5971 197.528 33.7698 197.179 33.8756V33.907C197.554 33.9599 197.849 34.0996 198.066 34.3263C198.282 34.5535 198.39 34.8566 198.39 35.2366C198.39 35.5376 198.331 35.7978 198.213 36.0166C198.093 36.2354 197.938 36.4166 197.745 36.5589C197.553 36.7013 197.331 36.8055 197.08 36.8715C196.829 36.9379 196.575 36.9704 196.316 36.9704C195.968 36.9704 195.682 36.951 195.458 36.9112C195.233 36.8715 195.047 36.8233 194.9 36.7647L195.066 36.1789C195.187 36.2349 195.357 36.2831 195.576 36.3239C195.795 36.3642 196.061 36.3846 196.372 36.3846C196.536 36.3846 196.696 36.3621 196.855 36.3176C197.013 36.2731 197.154 36.204 197.278 36.1114C197.402 36.0192 197.502 35.9046 197.579 35.7674C197.656 35.6298 197.694 35.4664 197.694 35.2764C197.694 34.944 197.578 34.6995 197.345 34.5441C197.113 34.3886 196.81 34.2975 196.435 34.2713C196.372 34.2656 196.313 34.2619 196.257 34.2593C196.202 34.2567 196.144 34.2551 196.087 34.2551H195.651Z" fill="#F26722"/>
<path d="M200.504 36.3848C200.652 36.3848 200.783 36.3649 200.9 36.3256C201.016 36.2858 201.116 36.2356 201.2 36.1748C201.285 36.1146 201.355 36.0471 201.41 35.9733C201.466 35.8995 201.506 35.8283 201.533 35.7592V35.1022C201.459 35.0975 201.384 35.0928 201.307 35.0907C201.231 35.0881 201.156 35.0865 201.082 35.0865C200.918 35.0865 200.758 35.0959 200.603 35.1143C200.447 35.1326 200.31 35.1666 200.191 35.2174C200.073 35.2676 199.978 35.3362 199.906 35.4231C199.835 35.51 199.799 35.6199 199.799 35.7513C199.799 35.9361 199.865 36.0879 199.997 36.2068C200.129 36.3256 200.298 36.3848 200.504 36.3848ZM199.38 33.2104C199.58 33.0894 199.814 32.9994 200.08 32.9413C200.347 32.8832 200.625 32.8539 200.915 32.8539C201.19 32.8539 201.41 32.891 201.577 32.9648C201.742 33.0392 201.87 33.1355 201.957 33.2538C202.043 33.3726 202.102 33.5035 202.13 33.6459C202.16 33.7883 202.174 33.9312 202.174 34.0736C202.174 34.3898 202.166 34.6986 202.15 34.9996C202.135 35.3006 202.127 35.5854 202.127 35.8545C202.127 36.0497 202.135 36.2345 202.15 36.4088C202.166 36.5826 202.195 36.7439 202.238 36.8915H201.77L201.604 36.3371H201.565C201.517 36.4115 201.458 36.4837 201.387 36.5549C201.315 36.6261 201.229 36.6894 201.129 36.7449C201.029 36.8004 200.913 36.8465 200.781 36.8836C200.649 36.9203 200.499 36.9386 200.33 36.9386C200.161 36.9386 200.004 36.9124 199.858 36.8596C199.713 36.8072 199.588 36.7318 199.483 36.6339C199.377 36.5366 199.294 36.4193 199.233 36.2816C199.173 36.1445 199.142 35.989 199.142 35.8147C199.142 35.5828 199.19 35.3891 199.285 35.2331C199.38 35.0776 199.513 34.9536 199.685 34.8614C199.856 34.7688 200.062 34.7028 200.302 34.663C200.542 34.6238 200.807 34.6033 201.098 34.6033H201.315C201.387 34.6033 201.459 34.6091 201.533 34.6196C201.549 34.461 201.557 34.3186 201.557 34.1919C201.557 33.9019 201.499 33.6988 201.382 33.5826C201.267 33.4663 201.056 33.4088 200.749 33.4088C200.659 33.4088 200.563 33.4156 200.46 33.4292C200.358 33.4428 200.252 33.4611 200.144 33.4857C200.035 33.5103 199.932 33.5402 199.835 33.5752C199.737 33.6108 199.652 33.6501 199.577 33.6935L199.38 33.2104Z" fill="#F26722"/>
<path d="M203.805 34.9045C203.805 35.105 203.826 35.2976 203.868 35.4824C203.91 35.6672 203.975 35.8295 204.062 35.9692C204.149 36.109 204.261 36.2184 204.399 36.298C204.536 36.377 204.697 36.4163 204.881 36.4163C205.246 36.4163 205.516 36.2854 205.693 36.0247C205.87 35.763 205.959 35.3766 205.959 34.8652C205.959 34.6642 205.939 34.4799 205.903 34.3108C205.866 34.1417 205.808 33.9957 205.729 33.8711C205.649 33.7476 205.549 33.6523 205.428 33.5863C205.306 33.5204 205.161 33.4874 204.992 33.4874C204.581 33.4827 204.28 33.6026 204.09 33.8481C203.9 34.0936 203.805 34.4454 203.805 34.9045ZM203.734 33.6219C203.908 33.3686 204.1 33.1911 204.312 33.088C204.523 32.9848 204.786 32.933 205.103 32.933C205.588 32.933 205.962 33.0916 206.223 33.4083C206.485 33.7251 206.615 34.192 206.615 34.8097C206.615 35.5222 206.463 36.0603 206.16 36.4246C205.856 36.7885 205.433 36.9706 204.89 36.9706C204.309 36.9706 203.873 36.7701 203.583 36.3692C203.293 35.9676 203.148 35.3374 203.148 34.4773C203.148 34.0234 203.17 33.6355 203.215 33.3131C203.26 32.9917 203.326 32.7194 203.413 32.498C203.5 32.2761 203.605 32.0996 203.73 31.9677C203.854 31.8358 203.993 31.7316 204.149 31.6552C204.305 31.5782 204.475 31.5243 204.66 31.4929C204.845 31.461 205.042 31.4343 205.254 31.4134C205.528 31.3872 205.743 31.3568 205.898 31.3223C206.054 31.2882 206.18 31.2259 206.275 31.1364L206.346 31.706C206.293 31.7536 206.235 31.7934 206.172 31.8253C206.109 31.8567 206.032 31.8829 205.942 31.9044C205.852 31.9253 205.745 31.9436 205.621 31.9599C205.498 31.9756 205.354 31.9892 205.191 31.9991C204.963 32.0154 204.764 32.0431 204.593 32.0824C204.421 32.1221 204.273 32.1986 204.149 32.3122C204.025 32.4252 203.928 32.5865 203.856 32.7948C203.785 33.0032 203.736 33.279 203.71 33.6219H203.734Z" fill="#F26722"/>
<path d="M208.673 36.3848C208.82 36.3848 208.952 36.3649 209.069 36.3256C209.185 36.2858 209.285 36.2356 209.369 36.1748C209.454 36.1146 209.524 36.0471 209.579 35.9733C209.634 35.8995 209.675 35.8283 209.702 35.7592V35.1022C209.628 35.0975 209.553 35.0928 209.476 35.0907C209.4 35.0881 209.325 35.0865 209.251 35.0865C209.087 35.0865 208.927 35.0959 208.772 35.1143C208.616 35.1326 208.479 35.1666 208.36 35.2174C208.242 35.2676 208.147 35.3362 208.075 35.4231C208.004 35.51 207.968 35.6199 207.968 35.7513C207.968 35.9361 208.034 36.0879 208.166 36.2068C208.298 36.3256 208.467 36.3848 208.673 36.3848ZM207.549 33.2104C207.749 33.0894 207.983 32.9994 208.249 32.9413C208.516 32.8832 208.794 32.8539 209.084 32.8539C209.359 32.8539 209.579 32.891 209.745 32.9648C209.911 33.0392 210.039 33.1355 210.126 33.2538C210.212 33.3726 210.271 33.5035 210.299 33.6459C210.329 33.7883 210.343 33.9312 210.343 34.0736C210.343 34.3898 210.335 34.6986 210.319 34.9996C210.304 35.3006 210.296 35.5854 210.296 35.8545C210.296 36.0497 210.304 36.2345 210.319 36.4088C210.335 36.5826 210.364 36.7439 210.407 36.8915H209.939L209.773 36.3371H209.734C209.686 36.4115 209.627 36.4837 209.555 36.5549C209.484 36.6261 209.398 36.6894 209.298 36.7449C209.198 36.8004 209.082 36.8465 208.95 36.8836C208.818 36.9203 208.668 36.9386 208.499 36.9386C208.33 36.9386 208.173 36.9124 208.027 36.8596C207.882 36.8072 207.757 36.7318 207.652 36.6339C207.546 36.5366 207.463 36.4193 207.402 36.2816C207.342 36.1445 207.311 35.989 207.311 35.8147C207.311 35.5828 207.359 35.3891 207.454 35.2331C207.549 35.0776 207.682 34.9536 207.854 34.8614C208.025 34.7688 208.231 34.7028 208.471 34.663C208.711 34.6238 208.976 34.6033 209.266 34.6033H209.484C209.555 34.6033 209.628 34.6091 209.702 34.6196C209.718 34.461 209.726 34.3186 209.726 34.1919C209.726 33.9019 209.667 33.6988 209.552 33.5826C209.436 33.4663 209.225 33.4088 208.918 33.4088C208.828 33.4088 208.732 33.4156 208.629 33.4292C208.527 33.4428 208.421 33.4611 208.313 33.4857C208.204 33.5103 208.101 33.5402 208.004 33.5752C207.906 33.6108 207.821 33.6501 207.746 33.6935L207.549 33.2104Z" fill="#F26722"/>
<path d="M212.449 31.3183C212.502 31.5612 212.593 31.7298 212.722 31.8251C212.851 31.9198 213 31.9674 213.17 31.9674C213.338 31.9674 213.489 31.9177 213.62 31.8172C213.752 31.7167 213.842 31.5534 213.89 31.3267L214.365 31.4769C214.317 31.7832 214.181 32.0177 213.957 32.1815C213.733 32.3454 213.465 32.4271 213.153 32.4271C213.011 32.4271 212.87 32.4082 212.73 32.3716C212.59 32.3344 212.465 32.2789 212.354 32.2051C212.243 32.1313 212.148 32.036 212.069 31.9198C211.99 31.8041 211.937 31.667 211.911 31.5083L212.449 31.3183ZM214.008 34.5325L214.032 34.042H214.008L213.684 34.5482L211.903 36.8756H211.538V32.9176H212.172V35.3319L212.148 35.7993H212.18L212.488 35.3083L214.27 32.9176H214.642V36.8756H214.008V34.5325Z" fill="#F26722"/>
<path d="M216.859 35.0944H216.494V36.8758H215.861V32.9177H216.494V34.7065L216.835 34.5955L218.101 32.9177H218.79L217.563 34.5086L217.23 34.7698L217.642 35.0865L218.964 36.8758H218.18L216.859 35.0944Z" fill="#F26722"/>
<path d="M220.706 36.3848C220.853 36.3848 220.985 36.3649 221.101 36.3256C221.218 36.2858 221.318 36.2356 221.402 36.1748C221.487 36.1146 221.557 36.0471 221.612 35.9733C221.667 35.8995 221.708 35.8283 221.734 35.7592V35.1022C221.66 35.0975 221.586 35.0928 221.509 35.0907C221.433 35.0881 221.357 35.0865 221.283 35.0865C221.12 35.0865 220.96 35.0959 220.805 35.1143C220.649 35.1326 220.512 35.1666 220.393 35.2174C220.274 35.2676 220.179 35.3362 220.108 35.4231C220.037 35.51 220.001 35.6199 220.001 35.7513C220.001 35.9361 220.067 36.0879 220.199 36.2068C220.331 36.3256 220.499 36.3848 220.706 36.3848ZM219.582 33.2104C219.782 33.0894 220.016 32.9994 220.282 32.9413C220.549 32.8832 220.827 32.8539 221.117 32.8539C221.391 32.8539 221.612 32.891 221.778 32.9648C221.944 33.0392 222.071 33.1355 222.158 33.2538C222.245 33.3726 222.303 33.5035 222.332 33.6459C222.361 33.7883 222.376 33.9312 222.376 34.0736C222.376 34.3898 222.368 34.6986 222.352 34.9996C222.336 35.3006 222.328 35.5854 222.328 35.8545C222.328 36.0497 222.336 36.2345 222.352 36.4088C222.368 36.5826 222.397 36.7439 222.439 36.8915H221.972L221.806 36.3371H221.767C221.719 36.4115 221.659 36.4837 221.588 36.5549C221.517 36.6261 221.431 36.6894 221.331 36.7449C221.231 36.8004 221.114 36.8465 220.982 36.8836C220.851 36.9203 220.7 36.9386 220.532 36.9386C220.363 36.9386 220.206 36.9124 220.06 36.8596C219.915 36.8072 219.79 36.7318 219.684 36.6339C219.579 36.5366 219.495 36.4193 219.435 36.2816C219.374 36.1445 219.344 35.989 219.344 35.8147C219.344 35.5828 219.392 35.3891 219.486 35.2331C219.582 35.0776 219.715 34.9536 219.886 34.8614C220.058 34.7688 220.263 34.7028 220.504 34.663C220.744 34.6238 221.009 34.6033 221.299 34.6033H221.517C221.588 34.6033 221.66 34.6091 221.734 34.6196C221.75 34.461 221.758 34.3186 221.758 34.1919C221.758 33.9019 221.7 33.6988 221.584 33.5826C221.468 33.4663 221.257 33.4088 220.951 33.4088C220.861 33.4088 220.765 33.4156 220.662 33.4292C220.56 33.4428 220.453 33.4611 220.345 33.4857C220.237 33.5103 220.134 33.5402 220.037 33.5752C219.939 33.6108 219.853 33.6501 219.779 33.6935L219.582 33.2104Z" fill="#F26722"/>
<path d="M225.701 33.4717H224.553C224.537 33.6932 224.521 33.9319 224.505 34.1879C224.489 34.4444 224.466 34.6998 224.434 34.9558C224.403 35.2123 224.361 35.4573 224.307 35.6923C224.254 35.9269 224.187 36.1342 224.106 36.3137C224.024 36.4933 223.924 36.6372 223.805 36.7451C223.686 36.8534 223.545 36.9073 223.381 36.9073C223.281 36.9073 223.194 36.9021 223.12 36.8916C223.046 36.8812 222.98 36.8623 222.922 36.8362L223.017 36.3053C223.08 36.3268 223.149 36.3373 223.223 36.3373C223.329 36.3373 223.424 36.2923 223.508 36.2027C223.592 36.1132 223.667 35.9431 223.729 35.6923C223.793 35.4416 223.846 35.0945 223.888 34.6511C223.93 34.2077 223.959 33.6303 223.975 32.9179H226.334V36.8754H225.701V33.4717Z" fill="#F26722"/>
<path d="M228.186 36.3216C228.381 36.353 228.569 36.3693 228.748 36.3693C229.081 36.3693 229.326 36.3043 229.485 36.175C229.642 36.0457 229.722 35.8625 229.722 35.6249C229.722 35.4139 229.646 35.2396 229.493 35.1024C229.339 34.9653 229.099 34.8967 228.772 34.8967C228.682 34.8967 228.585 34.8993 228.479 34.9045C228.374 34.9098 228.276 34.926 228.186 34.9522V36.3216ZM228.186 34.4297C228.313 34.4088 228.434 34.3936 228.55 34.3858C228.666 34.3779 228.777 34.3743 228.883 34.3743C229.157 34.3743 229.39 34.4046 229.58 34.4653C229.77 34.5261 229.924 34.6088 230.042 34.7145C230.161 34.8203 230.247 34.9454 230.3 35.0904C230.353 35.2359 230.379 35.3898 230.379 35.5537C230.379 36.0337 230.235 36.3823 229.948 36.5985C229.66 36.8147 229.213 36.9231 228.606 36.9231C228.268 36.9231 227.918 36.9074 227.553 36.8755V32.9179H228.186V34.4297Z" fill="#F26722"/>
<path d="M233.839 36.6142C233.68 36.7304 233.493 36.8189 233.277 36.8796C233.06 36.9403 232.833 36.9702 232.596 36.9702C232.289 36.9702 232.031 36.922 231.82 36.8241C231.609 36.7262 231.436 36.5864 231.301 36.4048C231.167 36.2226 231.069 36.0038 231.008 35.7478C230.948 35.4913 230.917 35.2081 230.917 34.8966C230.917 34.2266 231.065 33.713 231.361 33.3571C231.656 33.0006 232.081 32.8226 232.635 32.8226C232.889 32.8226 233.103 32.8425 233.28 32.8818C233.457 32.9215 233.617 32.9786 233.76 33.0524L233.578 33.5979C233.456 33.5298 233.321 33.4759 233.173 33.4361C233.026 33.3963 232.868 33.3764 232.699 33.3764C231.949 33.3764 231.575 33.8832 231.575 34.8966C231.575 35.0977 231.595 35.2882 231.634 35.4709C231.674 35.6525 231.739 35.8138 231.832 35.953C231.924 36.0933 232.045 36.2053 232.196 36.2902C232.346 36.3739 232.532 36.4163 232.754 36.4163C232.944 36.4163 233.114 36.3875 233.265 36.3294C233.415 36.2713 233.538 36.2053 233.633 36.1315L233.839 36.6142Z" fill="#F26722"/>
<path d="M235.707 35.0944H235.342V36.8758H234.709V32.9177H235.342V34.7065L235.683 34.5955L236.949 32.9177H237.638L236.411 34.5086L236.078 34.7698L236.49 35.0865L237.812 36.8758H237.029L235.707 35.0944Z" fill="#F26722"/>
<path d="M238.842 34.8966C238.842 35.0971 238.861 35.2898 238.901 35.4746C238.94 35.6594 239.002 35.8201 239.087 35.9577C239.171 36.0944 239.282 36.2053 239.419 36.2902C239.557 36.3739 239.723 36.4163 239.918 36.4163C240.636 36.4215 240.995 35.9153 240.995 34.8966C240.995 34.6904 240.975 34.4957 240.935 34.3103C240.896 34.1261 240.833 33.9648 240.75 33.8277C240.665 33.6911 240.554 33.5811 240.417 33.4995C240.28 33.4178 240.114 33.3764 239.918 33.3764C239.2 33.3717 238.842 33.8779 238.842 34.8966ZM238.185 34.8966C238.185 34.2266 238.334 33.713 238.632 33.3571C238.93 33.0006 239.359 32.8226 239.918 32.8226C240.214 32.8226 240.471 32.8713 240.69 32.9692C240.909 33.0671 241.09 33.2063 241.232 33.3885C241.375 33.5701 241.48 33.7895 241.549 34.0455C241.618 34.302 241.652 34.5852 241.652 34.8966C241.652 35.5667 241.503 36.0802 241.205 36.4362C240.907 36.7927 240.477 36.9702 239.918 36.9702C239.623 36.9702 239.366 36.922 239.146 36.8241C238.927 36.7262 238.747 36.5864 238.604 36.4048C238.461 36.2226 238.356 36.0038 238.288 35.7478C238.219 35.4913 238.185 35.2081 238.185 34.8966Z" fill="#F26722"/>
<path d="M245.918 34.5243L245.966 33.7726H245.926L245.641 34.3819L244.683 35.9335H244.462L243.465 34.3819L243.203 33.7726H243.171L243.235 34.5165V36.8758H242.649V32.9177H243.274L244.382 34.6908L244.612 35.1499H244.628L244.865 34.6751L245.902 32.9177H246.536V36.8758H245.918V34.5243Z" fill="#F26722"/>
<path d="M250.866 35.0944H250.502V36.8758H249.868V32.9177H250.502V34.7065L250.842 34.5955L252.109 32.9177H252.797L251.57 34.5086L251.238 34.7698L251.65 35.0865L252.971 36.8758H252.188L250.866 35.0944Z" fill="#F26722"/>
<path d="M255.251 33.3764C254.982 33.3764 254.769 33.4466 254.614 33.5863C254.458 33.7261 254.349 33.9387 254.285 34.2234V36.187C254.38 36.2608 254.488 36.3179 254.61 36.3571C254.732 36.3969 254.892 36.4163 255.093 36.4163C255.457 36.4163 255.746 36.2807 255.96 36.0085C256.173 35.7368 256.28 35.3374 256.28 34.8097C256.28 34.5935 256.262 34.3967 256.225 34.2198C256.188 34.0428 256.129 33.8926 256.047 33.7685C255.965 33.6445 255.859 33.5481 255.73 33.4796C255.601 33.411 255.441 33.3764 255.251 33.3764ZM253.652 32.9179H254.088L254.206 33.3927H254.238C254.359 33.2079 254.516 33.0671 254.709 32.9692C254.902 32.8713 255.122 32.8226 255.37 32.8226C255.898 32.8226 256.291 32.9786 256.55 33.2895C256.808 33.601 256.937 34.1104 256.937 34.8176C256.937 35.15 256.894 35.4494 256.807 35.7159C256.72 35.9823 256.597 36.2079 256.439 36.3927C256.28 36.5775 256.089 36.7199 255.865 36.8204C255.64 36.9204 255.391 36.9701 255.117 36.9701C254.922 36.9701 254.767 36.9586 254.654 36.9351C254.54 36.911 254.417 36.8702 254.285 36.8126V38.4589H253.652V32.9179Z" fill="#F26722"/>
<path d="M258.995 36.3848C259.143 36.3848 259.275 36.3649 259.391 36.3256C259.507 36.2858 259.607 36.2356 259.692 36.1748C259.776 36.1146 259.847 36.0471 259.902 35.9733C259.957 35.8995 259.998 35.8283 260.024 35.7592V35.1022C259.95 35.0975 259.875 35.0928 259.799 35.0907C259.722 35.0881 259.647 35.0865 259.573 35.0865C259.409 35.0865 259.25 35.0959 259.094 35.1143C258.938 35.1326 258.802 35.1666 258.683 35.2174C258.564 35.2676 258.469 35.3362 258.398 35.4231C258.327 35.51 258.291 35.6199 258.291 35.7513C258.291 35.9361 258.357 36.0879 258.489 36.2068C258.621 36.3256 258.789 36.3848 258.995 36.3848ZM257.871 33.2104C258.071 33.0894 258.305 32.9994 258.571 32.9413C258.838 32.8832 259.117 32.8539 259.407 32.8539C259.681 32.8539 259.902 32.891 260.068 32.9648C260.234 33.0392 260.361 33.1355 260.448 33.2538C260.535 33.3726 260.593 33.5035 260.622 33.6459C260.651 33.7883 260.666 33.9312 260.666 34.0736C260.666 34.3898 260.658 34.6986 260.642 34.9996C260.626 35.3006 260.618 35.5854 260.618 35.8545C260.618 36.0497 260.626 36.2345 260.642 36.4088C260.658 36.5826 260.687 36.7439 260.729 36.8915H260.262L260.096 36.3371H260.056C260.009 36.4115 259.949 36.4837 259.878 36.5549C259.807 36.6261 259.721 36.6894 259.621 36.7449C259.52 36.8004 259.404 36.8465 259.272 36.8836C259.14 36.9203 258.99 36.9386 258.822 36.9386C258.652 36.9386 258.495 36.9124 258.35 36.8596C258.205 36.8072 258.08 36.7318 257.974 36.6339C257.868 36.5366 257.785 36.4193 257.725 36.2816C257.664 36.1445 257.634 35.989 257.634 35.8147C257.634 35.5828 257.681 35.3891 257.776 35.2331C257.871 35.0776 258.004 34.9536 258.176 34.8614C258.347 34.7688 258.553 34.7028 258.794 34.663C259.034 34.6238 259.298 34.6033 259.589 34.6033H259.807C259.878 34.6033 259.95 34.6091 260.024 34.6196C260.04 34.461 260.048 34.3186 260.048 34.1919C260.048 33.9019 259.99 33.6988 259.874 33.5826C259.758 33.4663 259.547 33.4088 259.241 33.4088C259.151 33.4088 259.055 33.4156 258.951 33.4292C258.849 33.4428 258.743 33.4611 258.635 33.4857C258.527 33.5103 258.424 33.5402 258.327 33.5752C258.228 33.6108 258.143 33.6501 258.069 33.6935L257.871 33.2104Z" fill="#F26722"/>
<path d="M263.389 33.3764C263.077 33.3764 262.828 33.4586 262.641 33.622C262.453 33.7858 262.341 34.0653 262.304 34.4611H264.268C264.268 34.0601 264.191 33.7795 264.038 33.6178C263.885 33.4571 263.668 33.3764 263.389 33.3764ZM264.75 36.5587C264.592 36.6854 264.393 36.7859 264.153 36.8597C263.913 36.9335 263.658 36.9702 263.389 36.9702C263.088 36.9702 262.827 36.922 262.605 36.8241C262.383 36.7262 262.202 36.5864 262.059 36.4048C261.916 36.2226 261.811 36.0049 261.743 35.7515C261.674 35.4981 261.639 35.2128 261.639 34.8966C261.639 34.2213 261.79 33.7062 262.091 33.3529C262.392 32.9995 262.822 32.8226 263.381 32.8226C263.561 32.8226 263.74 32.8425 263.919 32.8818C264.098 32.9215 264.26 32.9969 264.402 33.1079C264.545 33.2184 264.661 33.3754 264.75 33.5785C264.84 33.7816 264.885 34.0496 264.885 34.3821C264.885 34.5559 264.869 34.749 264.838 34.96H262.296C262.296 35.1919 262.32 35.3981 262.368 35.5777C262.415 35.7567 262.489 35.9085 262.59 36.0326C262.69 36.1567 262.82 36.2514 262.981 36.3179C263.142 36.3839 263.339 36.4163 263.571 36.4163C263.751 36.4163 263.93 36.3849 264.109 36.3216C264.288 36.2577 264.423 36.1844 264.513 36.1001L264.75 36.5587Z" fill="#F26722"/>
<path d="M20.2953 19.1274L8.78442 17.5298V25.0308C8.78442 25.0308 14.4464 29.217 20.2953 29.217C26.1442 29.217 31.8061 25.0308 31.8061 25.0308V17.5298L20.2953 19.1274Z" fill="#484558"/>
<path d="M20.2953 24.0797L0.00463867 15.0486L20.2953 6.29387L40.586 15.0486L20.2953 24.0797Z" fill="#AEA6CE"/>
<path d="M20.2954 8.30721L36.5103 15.1868L20.7482 22.4365L32.6051 15.3716L20.2954 8.30721Z" fill="#484558"/>
<path d="M9.67188 20.6257V24.4241C9.67188 24.4241 11.2695 25.8799 13.6127 26.5898C13.1509 26.1637 10.3817 24.0797 10.3817 24.0797L9.67188 20.6257Z" fill="#AEA6CE"/>
</svg>
