<svg width="20" height="20" viewBox="0 0 20 20" fill="none" xmlns="http://www.w3.org/2000/svg">
<path d="M10 5.72C10 5.47286 10 5.34929 10.0582 5.24624C10.105 5.16351 10.1985 5.08259 10.2871 5.04819C10.3974 5.00533 10.5041 5.02081 10.7175 5.05175C11.3434 5.1425 11.9486 5.3515 12.5 5.66987C13.2601 6.10871 13.8913 6.7399 14.3301 7.5C14.769 8.2601 15 9.12232 15 10C15 10.8777 14.769 11.7399 14.3301 12.5C13.8913 13.2601 13.2601 13.8913 12.5 14.3301C11.7399 14.769 10.8777 15 10 15C9.12232 15 8.2601 14.769 7.5 14.3301C6.94856 14.0118 6.46497 13.5921 6.07345 13.0955C5.93996 12.9262 5.87321 12.8415 5.85515 12.7245C5.84065 12.6306 5.86398 12.5092 5.91225 12.4273C5.97237 12.3254 6.07938 12.2636 6.29341 12.14L9.64 10.2078C9.77115 10.1321 9.83672 10.0943 9.88442 10.0413C9.92661 9.99444 9.95849 9.93923 9.97798 9.87925C10 9.81147 10 9.73575 10 9.58431V5.72Z" fill="#B183DF"/>
<circle cx="9.99967" cy="10" r="7.16667" stroke="#B183DF"/>
</svg>
